<svg width="829" height="419" viewBox="0 0 829 419" fill="none" xmlns="http://www.w3.org/2000/svg">
<path d="M677.92 356.222C660.521 353.154 646.531 346.118 635.948 335.113C625.693 324.166 619.251 309.829 616.622 292.104C614.322 274.436 616.076 253.929 621.885 230.583C628.814 204.726 639.122 183.697 652.81 167.494C666.499 151.292 682.06 139.82 699.496 133.078C716.931 126.337 734.512 124.529 752.239 127.655C769.966 130.78 783.956 137.817 794.211 148.764C804.466 159.711 810.908 174.047 813.536 191.773C816.165 209.499 814.41 230.006 808.273 253.294C801.403 278.822 791.094 299.851 777.348 316.382C763.988 332.643 748.591 344.144 731.155 350.885C714.048 357.684 696.303 359.463 677.92 356.222ZM697.931 334.872C707.123 336.493 714.943 335.333 721.392 331.393C727.84 327.453 733.719 320.028 739.028 309.117C744.336 298.207 749.441 282.691 754.343 262.57C760.924 238.683 764.127 218.601 763.951 202.323C763.775 186.045 760.906 173.523 755.343 164.758C750.167 155.721 742.491 150.306 732.315 148.512C723.451 146.949 715.795 148.138 709.346 152.078C702.898 156.018 696.99 163.607 691.623 174.846C686.257 186.085 680.766 201.871 675.149 222.205C669.34 245.551 666.524 265.363 666.7 281.64C666.876 297.918 669.745 310.44 675.308 319.206C680.87 327.972 688.411 333.194 697.931 334.872Z" fill="black"/>
<path d="M507.454 357.014C496.621 355.104 488.375 349.081 482.716 338.944C477.057 328.807 476.051 316.275 479.698 301.349L539.32 60.173C541.549 51.1536 535.678 42.1314 526.528 40.518L515.044 38.4932C511.799 37.921 509.765 34.6641 510.673 31.4968C511.247 29.4976 512.89 27.9868 514.931 27.583L586.78 13.3641C588.208 13.0817 589.675 13.0664 591.108 13.3191C598.238 14.5763 602.552 21.9131 600.184 28.7549L583.996 75.5292L529.081 294.825C527.248 303.302 527.046 310.205 528.476 315.534C530.292 320.593 534.154 323.644 540.063 324.686C542.689 325.149 545.595 324.984 548.781 324.192C551.967 323.4 555.983 321.739 560.829 319.208C563.897 317.607 567.333 315.459 571.136 312.766C574.727 310.223 579.817 311.512 581.545 315.56C582.709 318.288 581.94 321.461 579.635 323.328C567.459 333.196 557.078 340.744 548.494 345.973C539.072 351.42 531.204 354.771 524.89 356.027C518.518 357.611 512.706 357.94 507.454 357.014Z" fill="black"/>
<path d="M368.731 350.872C364.806 351.811 360.667 350.933 357.461 348.481C353.206 345.227 351.295 339.752 352.6 334.556L392.401 176.188C394.653 167.229 389.637 158.044 380.883 155.095L369.929 151.405C367.041 150.433 365.436 147.353 366.294 144.429C366.912 142.32 368.692 140.758 370.864 140.418L445.27 128.785C446.195 128.641 447.137 128.65 448.059 128.812C453.25 129.727 456.365 135.096 454.585 140.057L441.026 177.836L408.868 303.916C406.694 312.438 412.228 321.01 420.89 322.537L430.876 324.298C434.336 324.908 436.513 328.373 435.562 331.755C434.979 333.828 433.32 335.423 431.226 335.923L368.731 350.872Z" fill="black"/>
<g clip-path="url(#clip0_56_8)">
<path d="M433.58 67.3646C430.315 66.789 427.413 64.9399 425.511 62.2243C423.61 59.5086 422.865 56.1488 423.441 52.8839L428.365 53.7522C428.019 55.7111 428.466 57.727 429.607 59.3564C430.748 60.9858 432.489 62.0952 434.448 62.4406C436.407 62.786 438.423 62.3391 440.053 61.1982C441.682 60.0573 442.791 58.3158 443.137 56.3569L448.061 57.2252C447.485 60.49 445.636 63.3924 442.92 65.2939C440.205 67.1955 436.845 67.9403 433.58 67.3646ZM437.921 42.7445C439.88 43.0899 441.622 44.1993 442.763 45.8287C443.903 47.4581 444.35 49.474 444.005 51.4329L429.233 48.8281C429.578 46.8692 430.688 45.1278 432.317 43.9869C433.946 42.846 435.962 42.399 437.921 42.7445ZM453.853 53.1694L448.929 52.3011C449.214 50.6845 449.178 49.0276 448.823 47.425C448.467 45.8224 447.8 44.3055 446.858 42.9608C445.917 41.6161 444.72 40.4701 443.335 39.5881C441.951 38.7061 440.406 38.1055 438.79 37.8204C435.525 37.2447 432.165 37.9896 429.449 39.8911C426.734 41.7926 424.885 44.6951 424.309 47.9599L419.385 47.0917C416.652 46.6098 414.074 48.4146 413.593 51.1475L408.383 80.6917C408.153 81.9976 408.451 83.3416 409.211 84.4278C409.972 85.5141 411.133 86.2537 412.439 86.484L446.907 92.5617C448.213 92.7919 449.557 92.494 450.643 91.7334C451.73 90.9728 452.469 89.8118 452.699 88.5059L457.909 58.9616C458.139 57.6557 457.841 56.3118 457.081 55.2255C456.32 54.1392 455.159 53.3996 453.853 53.1694Z" fill="black"/>
</g>
<path d="M302.5 17.4543C311.93 17.4543 320.476 19.6323 327.985 24.1155C336.376 28.7681 340.207 37.1668 340.482 47.7151C342.069 45.6547 343.606 43.6928 345.096 41.8313L345.187 41.717L345.283 41.6096C346.821 39.9008 348.16 38.5053 349.262 37.5042C349.803 37.0124 350.398 36.5134 351.008 36.1067C351.314 35.9027 351.721 35.6568 352.202 35.4475C352.633 35.2604 353.453 34.9544 354.5 34.9543L354.745 34.9583C356.003 34.9991 357.737 35.3707 359.16 36.7942C360.679 38.3126 361 40.1836 361 41.4543C361 42.3918 360.762 44.0128 359.41 45.3645C359.237 45.5374 359.06 45.692 358.88 45.8303C353.433 53.5359 349.387 60.9953 346.682 68.2102L346.656 68.2766C343.774 75.6419 341.028 84.1732 338.426 93.8889C338.194 95.3842 337.396 96.8659 335.898 97.8645C334.445 98.8333 332.898 98.9543 332 98.9543C329.285 98.9543 326.485 97.7041 324.02 96.2952L323.87 96.2102L323.727 96.1145C321.425 94.5799 318.5 91.942 318.5 87.9543C318.5 82.804 319.237 77.8073 320.721 72.9836L320.771 72.8196L320.833 72.6594C322.295 68.8576 323 65.1313 323 61.4543C323 57.4 321.693 55.05 319.56 53.4983L319.466 53.4309L319.377 53.3586C316.873 51.3558 313.603 49.979 309.339 49.4104L309.145 49.384L308.952 49.343C304.596 48.4095 300.448 47.9543 296.5 47.9543C288.402 47.9543 279.205 49.3574 268.87 52.2629C258.958 55.1428 249.346 59.3059 240.028 64.7678C230.885 70.1277 223.391 76.7024 217.48 84.4797L217.451 84.5188L217.42 84.5579C211.771 91.694 209 99.6056 209 108.454C209 115.617 211.255 121.808 215.824 127.234C220.802 133.145 226.729 138.302 233.633 142.702C240.895 146.993 247.662 150.955 253.936 154.587C264.096 160.011 274.719 166.591 285.802 174.313L286.896 175.061C298.151 182.825 307.683 191.764 315.45 201.89C324.14 212.778 328.5 225.363 328.5 239.454C328.5 261.226 323.654 281.367 313.921 299.79L313.912 299.808L313.902 299.824C304.276 317.703 291.402 333.822 275.332 348.183L275.287 348.222C259.273 362.192 241.396 373.936 221.674 383.457L221.673 383.456C202.038 393.268 181.878 400.724 161.194 405.81C140.524 410.893 120.788 413.454 102 413.454C87.5182 413.454 72.8995 411.385 58.1562 407.271V407.27C43.3835 403.388 30.7781 396.303 20.4648 385.99C9.9449 375.47 5 360.881 5 342.954C5 331.704 6.9355 320.489 10.7715 309.329C14.5223 298.418 19.1318 288.163 24.6035 278.573C29.1524 270.175 35.5484 261.215 43.7041 251.7L43.7363 251.662L43.7705 251.624C52.2736 242.101 61.618 233.098 71.7988 224.614C82.0425 216.077 92.669 209.038 103.681 203.524C114.854 197.592 125.652 194.454 136 194.454C138.044 194.454 140.097 195.082 141.793 196.567C143.291 197.878 144.173 199.561 144.694 201.205C145.232 202.361 146.083 203.459 147.379 204.488C147.865 204.663 148.334 204.849 148.783 205.042C150.261 205.242 151.618 205.777 152.829 206.513C154.014 207.045 155.236 207.827 156.216 209.003C157.401 210.425 158 212.149 158 213.954C158 215.822 157.396 218.049 155.451 219.67C153.681 221.146 151.571 221.454 150 221.454C147.186 221.454 144.48 221.051 141.919 220.198L141.398 220.025L140.928 219.741C140.181 219.293 139.11 218.954 137.5 218.954C131.924 218.954 125.183 220.282 117.193 223.158L117.138 223.179L117.081 223.198C109.251 225.807 102.479 228.555 96.7363 231.426L96.7119 231.439L96.6875 231.45C84.9494 237.161 74.2792 245.107 64.6758 255.344C55.3924 265.594 47.8624 277.124 42.083 289.952C36.6819 302.676 34 315.665 34 328.954C34 344.037 38.0627 355.156 45.5986 362.984C53.9341 371.628 64.2983 377.688 76.8262 381.133H76.8252C90.085 384.688 103.14 386.454 116 386.454C129.911 386.454 145.047 384.675 161.426 381.072L161.436 381.069L161.446 381.067C178.094 377.476 194.428 372.087 210.452 364.893L210.469 364.885L210.486 364.878C226.782 357.708 241.404 348.928 254.377 338.55C267.248 328.254 277.49 316.395 285.159 302.974L285.181 302.935L285.203 302.897C293.056 289.705 297 275.095 297 258.954C297 250.343 294.503 242.93 289.544 236.512C284.287 229.709 277.241 223.411 268.296 217.66L268.261 217.638L268.227 217.615C259.297 211.662 249.865 205.704 239.928 199.741C229.816 193.674 220.037 187.268 210.594 180.523L210.559 180.498L210.523 180.472C201.122 173.508 193.381 165.612 187.365 156.766C181.066 147.502 178 136.661 178 124.454C178 110.41 182.157 96.9863 190.286 84.262C198.262 71.4442 208.469 60.0448 220.863 50.0608L220.89 50.0393L220.916 50.0188C233.585 40.089 246.975 32.1855 261.085 26.3352L261.124 26.3196C275.59 20.4643 289.397 17.4543 302.5 17.4543Z" fill="black" stroke="black" stroke-width="10"/>
<defs>
<clipPath id="clip0_56_8">
<rect width="60" height="60" fill="white" transform="translate(409.679 30.1489) rotate(10)"/>
</clipPath>
</defs>
</svg>
